# xmcd
#
# Track frame offsets: 
#        150
#        15585
#        29877
#        43070
#        58035
#        69487
#        82562
#        99480
#        112560
#        125720
#        140325
#        151850
#        166730
#        177707
#        192575
#        204437
#
# Disc length: 2902 seconds
#
# Revision: 2
# Processed by: cddbd v1.5.2PL0 Copyright (c) Steve Scherf et al.
# Submitted via: ExactAudioCopy v0.99pb3
#
DISCID=d30b5410
DTITLE=Various Artist - Easy Ridin' Vol II
DYEAR=2002
DGENRE=Country
TTITLE0=Juice Newton - Queen Of Hearts
TTITLE1=Eddie Rabbit - I Love A Rainy Night
TTITLE2=Dolly Parton - Here You Come Again
TTITLE3=Marshall Tucker Band - Can't You See (Single Version)
TTITLE4=Willie Nelson - On The Road Again
TTITLE5=Jennifer Warnes - Right Time Of The Night
TTITLE6=J.D. Souther with James Taylor - You're Only Lonely
TTITLE7=Lynn Anderson - Rose Garden
TTITLE8=Tanya Tucker - Delta Dawn
TTITLE9=Ronnie Milsap - No Getting Over Me
TTITLE10=Sammi Smith - Help Me Make It Through The Night
TTITLE11=Michael Murphey - Wildfire
TTITLE12=B.W. Stevenson - My Maria
TTITLE13=Dan Fogelberg - Part Of The Plan
TTITLE14=The Stone Poneys - Different Drum
TTITLE15=Poco - Crazy Love
EXTD=
EXTT0=
EXTT1=
EXTT2=
EXTT3=
EXTT4=
EXTT5=
EXTT6=
EXTT7=
EXTT8=
EXTT9=
EXTT10=
EXTT11=
EXTT12=
EXTT13=
EXTT14=
EXTT15=
PLAYORDER=
